<?xml version="1.0" encoding="UTF-8" standalone="no"?>
<svg
   xmlns:dc="http://purl.org/dc/elements/1.1/"
   xmlns:cc="http://creativecommons.org/ns#"
   xmlns:rdf="http://www.w3.org/1999/02/22-rdf-syntax-ns#"
   xmlns:svg="http://www.w3.org/2000/svg"
   xmlns="http://www.w3.org/2000/svg"
   xmlns:sodipodi="http://sodipodi.sourceforge.net/DTD/sodipodi-0.dtd"
   xmlns:inkscape="http://www.inkscape.org/namespaces/inkscape"
   width="512"
   height="512"
   viewBox="0 0 512 512"
   version="1.1"
   id="svg4"
   sodipodi:docname="lanus.svg"
   inkscape:version="1.0.1 (3bc2e813f5, 2020-09-07)"
   inkscape:export-filename="D:\j1\github\j1-theme\j1-template\packages\300_theme_src\assets\image\icons\lanus\lanus.png"
   inkscape:export-xdpi="96"
   inkscape:export-ydpi="96">
  <metadata
     id="metadata10">
    <rdf:RDF>
      <cc:Work
         rdf:about="">
        <dc:format>image/svg+xml</dc:format>
        <dc:type
           rdf:resource="http://purl.org/dc/dcmitype/StillImage" />
        <dc:title />
      </cc:Work>
    </rdf:RDF>
  </metadata>
  <defs
     id="defs8" />
  <sodipodi:namedview
     pagecolor="#ffffff"
     bordercolor="#666666"
     borderopacity="1"
     objecttolerance="10"
     gridtolerance="10"
     guidetolerance="10"
     inkscape:pageopacity="0"
     inkscape:pageshadow="2"
     inkscape:window-width="1901"
     inkscape:window-height="1246"
     id="namedview6"
     showgrid="false"
     inkscape:pagecheckerboard="true"
     inkscape:showpageshadow="false"
     inkscape:zoom="1.9609375"
     inkscape:cx="175.94218"
     inkscape:cy="235.60159"
     inkscape:window-x="418"
     inkscape:window-y="7"
     inkscape:window-maximized="0"
     inkscape:current-layer="svg4"
     inkscape:document-rotation="0" />
  <ellipse
     style="opacity:0.523523;fill:#000000;fill-opacity:1;stroke-width:1.55429"
     id="path831-0-3"
     cx="216.73309"
     cy="274.35858"
     rx="30.08765"
     ry="28.30279" />
  <ellipse
     style="opacity:0.523523;fill:#ff0000;fill-opacity:1;stroke-width:1.55429"
     id="path831-0"
     cx="249.62552"
     cy="141.76892"
     rx="30.08765"
     ry="28.30279" />
  <path
     fill="currentColor"
     d="M 118.94548,344.56663 A 184.27458,174.56775 0 0 1 49.541939,204.22905 C 51.727877,113.8597 128.01712,39.352618 223.21472,34.610505 A 183.61879,173.94651 0 0 1 416.7795,206.29984 l 50.05799,91.11486 c 0.10939,0.18638 0.19681,0.37275 0.28416,0.55912 a 26.231257,24.849501 0 0 1 -12.37241,32.01444 l -0.28418,0.12425 -55.17307,24.00048 v 69.62002 a 26.231257,24.849501 0 0 1 -26.23128,24.84949 h -104.925 a 8.7437534,8.2831689 0 0 1 0,-16.56633 h 104.925 a 8.7437519,8.2831669 0 0 0 8.74377,-8.28316 v -74.94197 a 8.7437519,8.2831669 0 0 1 5.11511,-7.53767 l 60.11328,-26.07127 a 8.7437519,8.2831669 0 0 0 4.10958,-10.35396 L 400.27566,212.22231 A 8.9623459,8.4902464 0 0 1 399.29199,208.37063 166.13128,157.38017 0 0 0 259.39196,53.06126 v 48.45653 a 43.718761,41.415835 0 1 1 -17.48749,0 V 51.218255 a 170.50316,161.52176 0 0 0 -17.72795,0 C 151.7564,54.821433 91.446367,102.98805 72.909617,166.95481 h 55.326093 a 8.7437519,8.2831669 0 0 1 6.71082,2.98195 l 60.02585,68.33611 a 43.981072,41.66433 0 1 1 -13.3998,10.62318 l -57.42457,-65.3749 H 69.21538 a 165.9127,157.17309 0 0 0 64.35402,150.75365 8.7437519,8.2831669 0 0 1 3.43192,7.66193 l -17.4875,132.53067 a 8.7437519,8.2831669 0 0 1 -8.74376,7.24777 h -1.09297 a 8.7437519,8.2831669 0 0 1 -7.67264,-9.31857 z M 224.41698,142.1053 a 26.231257,24.849501 0 1 0 26.23124,-24.84949 26.231257,24.849501 0 0 0 -26.23124,24.84949 m -8.74376,157.3802 a 26.231257,24.849501 0 1 0 -26.23125,-24.84951 26.231257,24.849501 0 0 0 26.23125,24.84951"
     id="path2-1"
     style="stroke-width:2.12759" />
</svg>
