<?xml version="1.0" encoding="UTF-8" standalone="no"?>
<svg
   width="16"
   height="16"
   viewBox="0 0 16 16"
   version="1.1"
   id="svg1"
   sodipodi:docname="star-gray.svg"
   inkscape:version="1.4 (86a8ad7, 2024-10-11)"
   xmlns:inkscape="http://www.inkscape.org/namespaces/inkscape"
   xmlns:sodipodi="http://sodipodi.sourceforge.net/DTD/sodipodi-0.dtd"
   xmlns="http://www.w3.org/2000/svg"
   xmlns:svg="http://www.w3.org/2000/svg">
  <defs
     id="defs1" />
  <sodipodi:namedview
     id="namedview1"
     pagecolor="#ffffff"
     bordercolor="#000000"
     borderopacity="0.25"
     inkscape:showpageshadow="false"
     inkscape:pageopacity="0.0"
     inkscape:pagecheckerboard="0"
     inkscape:deskcolor="#d1d1d1"
     showgrid="true"
     inkscape:zoom="72.9375"
     inkscape:cx="8.0068552"
     inkscape:cy="8"
     inkscape:window-width="3440"
     inkscape:window-height="1369"
     inkscape:window-x="-8"
     inkscape:window-y="-8"
     inkscape:window-maximized="1"
     inkscape:current-layer="svg1">
    <inkscape:grid
       id="grid1"
       units="px"
       originx="0"
       originy="0"
       spacingx="1"
       spacingy="1"
       empcolor="#0099e5"
       empopacity="0.30196078"
       color="#0099e5"
       opacity="0.14901961"
       empspacing="5"
       enabled="true"
       visible="true" />
  </sodipodi:namedview>
  <path
     fill="orange"
     d="m 3.6777807,14.905212 c 0.2585838,0.2048 0.5865104,0.132134 0.9775081,-0.165165 l 3.3361709,-2.563552 3.3424663,2.563552 c 0.390999,0.297292 0.712629,0.369965 0.977509,0.165165 0.258558,-0.204829 0.315333,-0.541785 0.157653,-1.024089 L 11.151008,9.7715141 14.518686,7.2344046 C 14.909766,6.9437088 15.067338,6.6397908 14.96646,6.3094314 14.865583,5.9922926 14.569166,5.8337239 14.083532,5.8403197 L 9.9527735,5.8667693 8.6977911,1.7373424 C 8.5464344,1.2484142 8.3193862,1.0039781 7.9914597,1.0039781 c -0.3216296,0 -0.5486779,0.2444361 -0.7000345,0.7333643 L 6.036416,5.8667693 1.9056558,5.8403197 C 1.4200503,5.8336571 1.1236328,5.9922926 1.022728,6.3094314 0.91552847,6.6397908 1.079498,6.9437088 1.4705021,7.2344046 l 3.36768,2.5371095 -1.318055,4.1096089 c -0.1576801,0.482304 -0.1009017,0.81926 0.1576536,1.024089 z"
     id="path1"
     style="fill:#999999;stroke-width:0.275415" />
</svg>
