<?xml version="1.0" encoding="UTF-8" standalone="no"?>
<svg
   width="16"
   height="16"
   viewBox="0 0 16 16"
   version="1.1"
   id="svg1"
   sodipodi:docname="star-orange.svg"
   inkscape:version="1.4 (86a8ad7, 2024-10-11)"
   xmlns:inkscape="http://www.inkscape.org/namespaces/inkscape"
   xmlns:sodipodi="http://sodipodi.sourceforge.net/DTD/sodipodi-0.dtd"
   xmlns="http://www.w3.org/2000/svg"
   xmlns:svg="http://www.w3.org/2000/svg">
  <defs
     id="defs1" />
  <sodipodi:namedview
     id="namedview1"
     pagecolor="#ffffff"
     bordercolor="#000000"
     borderopacity="0.25"
     inkscape:showpageshadow="false"
     inkscape:pageopacity="0.0"
     inkscape:pagecheckerboard="0"
     inkscape:deskcolor="#d1d1d1"
     showgrid="true"
     inkscape:zoom="36.6875"
     inkscape:cx="8"
     inkscape:cy="8"
     inkscape:window-width="1143"
     inkscape:window-height="1211"
     inkscape:window-x="699"
     inkscape:window-y="92"
     inkscape:window-maximized="0"
     inkscape:current-layer="svg1">
    <inkscape:grid
       id="grid1"
       units="px"
       originx="0"
       originy="0"
       spacingx="1"
       spacingy="1"
       empcolor="#0099e5"
       empopacity="0.30196078"
       color="#0099e5"
       opacity="0.14901961"
       empspacing="5"
       enabled="true"
       visible="true" />
  </sodipodi:namedview>
  <path
     fill="#ffa500"
     d="m 3.6731387,14.87338 c 0.2587916,0.204475 0.5869807,0.131917 0.9782917,-0.164903 l 3.338844,-2.55947 3.3451456,2.55947 c 0.391313,0.29682 0.713199,0.369378 0.978292,0.164903 0.258764,-0.204503 0.315585,-0.540923 0.157779,-1.022459 L 11.152354,9.7478555 14.522732,7.214786 C 14.914124,6.924552 15.071823,6.6211182 14.970864,6.2912848 14.869905,5.9746514 14.573252,5.8163341 14.087229,5.8229204 L 9.9531601,5.8493156 8.697172,1.726464 C 8.5456941,1.2383133 8.3184635,0.99426605 7.9902744,0.99426605 7.6683875,0.99426605 7.4411569,1.2383133 7.289679,1.726464 L 6.0336638,5.8493156 1.8995943,5.8229204 C 1.4135986,5.8163298 1.1169449,5.9746514 1.0159591,6.2912848 0.90867284,6.6211182 1.072776,6.924552 1.4640916,7.214786 L 4.8344702,9.7478555 3.5153595,13.850921 c -0.1578064,0.481536 -0.1009858,0.817956 0.1577792,1.022459 z"
     id="path1-8"
     style="stroke-width:0.275305" />
</svg>
