<?xml version="1.0" encoding="UTF-8" standalone="no"?>
<svg
   width="80"
   height="16"
   viewBox="0 0 80 16"
   version="1.1"
   id="svg1"
   sodipodi:docname="1-star.svg"
   inkscape:version="1.4 (86a8ad7, 2024-10-11)"
   xmlns:inkscape="http://www.inkscape.org/namespaces/inkscape"
   xmlns:sodipodi="http://sodipodi.sourceforge.net/DTD/sodipodi-0.dtd"
   xmlns="http://www.w3.org/2000/svg"
   xmlns:svg="http://www.w3.org/2000/svg">
  <defs
     id="defs1" />
  <sodipodi:namedview
     id="namedview1"
     pagecolor="#ffffff"
     bordercolor="#000000"
     borderopacity="0.25"
     inkscape:showpageshadow="2"
     inkscape:pageopacity="0.0"
     inkscape:pagecheckerboard="0"
     inkscape:deskcolor="#d1d1d1"
     inkscape:zoom="15.2125"
     inkscape:cx="40"
     inkscape:cy="7.9868529"
     inkscape:window-width="1773"
     inkscape:window-height="1211"
     inkscape:window-x="284"
     inkscape:window-y="64"
     inkscape:window-maximized="0"
     inkscape:current-layer="svg1"
     showgrid="true">
    <inkscape:grid
       id="grid1"
       units="px"
       originx="0"
       originy="0"
       spacingx="1"
       spacingy="1"
       empcolor="#0099e5"
       empopacity="0.30196078"
       color="#0099e5"
       opacity="0.14901961"
       empspacing="5"
       enabled="true"
       visible="true" />
  </sodipodi:namedview>
  <g
     id="g1">
    <path
       fill="#ffa500"
       d="m 3.791385,14.814906 c 0.2587173,0.204157 0.5868116,0.131711 0.9780107,-0.164644 l 3.337885,-2.555475 3.3441853,2.555475 c 0.391199,0.296355 0.712994,0.368801 0.978011,0.164644 0.25869,-0.204183 0.315495,-0.540078 0.157733,-1.020863 L 11.268451,9.6973806 14.637863,7.1682654 C 15.029141,6.8784853 15.186797,6.5755253 15.085866,6.2462055 14.984937,5.9300669 14.688367,5.7719969 14.202485,5.7785728 L 10.069603,5.8049378 8.8139753,1.6885214 C 8.6625411,1.2011328 8.4353762,0.95746589 8.1072807,0.95746589 c -0.3217948,0 -0.5489597,0.24366691 -0.7003939,0.73105551 L 6.1512324,5.8049378 2.0183492,5.7785728 C 1.5324941,5.7719625 1.2359251,5.9300669 1.1349686,6.2462055 1.0277161,6.5755253 1.191774,6.8784853 1.5829718,7.1682654 L 4.9523822,9.6973806 3.6336513,13.794043 c -0.1577618,0.480785 -0.1009516,0.81668 0.1577337,1.020863 z"
       id="path1"
       style="stroke-width:0.275053"
       inkscape:transform-center-x="0.32867707"
       inkscape:transform-center-y="2.5636812" />
    <path
       fill="#ffa500"
       d="m 19.714858,14.85744 c 0.258718,0.204157 0.586812,0.131711 0.978011,-0.164644 l 3.337885,-2.555475 3.344185,2.555475 c 0.391199,0.296355 0.712994,0.368801 0.978011,0.164644 0.25869,-0.204183 0.315495,-0.540078 0.157733,-1.020863 L 27.191924,9.739915 30.561336,7.210799 C 30.952614,6.921019 31.11027,6.618059 31.009339,6.28874 30.90841,5.972601 30.61184,5.814531 30.125958,5.821107 L 25.993076,5.847477 24.737448,1.73106 C 24.586014,1.243672 24.358849,1.000005 24.030754,1.000005 c -0.321795,0 -0.54896,0.243667 -0.700394,0.731055 l -1.255654,4.116417 -4.132884,-0.02637 c -0.485855,-0.0066 -0.782424,0.151494 -0.88338,0.467633 -0.107253,0.329319 0.0568,0.632279 0.448003,0.922059 l 3.36941,2.529116 -1.318731,4.096662 c -0.157761,0.480785 -0.100951,0.81668 0.157734,1.020863 z"
       id="path1-5"
       style="stroke-width:0.275053;fill:#999999"
       inkscape:transform-center-x="0.32867707"
       inkscape:transform-center-y="2.5636812" />
    <path
       fill="#ffa500"
       d="m 35.754301,14.923175 c 0.258718,0.204157 0.586812,0.131711 0.978011,-0.164644 l 3.337885,-2.555475 3.344185,2.555475 c 0.391199,0.296355 0.712994,0.368801 0.978011,0.164644 0.25869,-0.204183 0.315495,-0.540078 0.157733,-1.020863 l -1.318759,-4.0966616 3.369412,-2.529116 c 0.391278,-0.28978 0.548934,-0.59274 0.448003,-0.922059 -0.100929,-0.316139 -0.397499,-0.474209 -0.883381,-0.467633 l -4.132882,0.02637 -1.255628,-4.116417 c -0.151434,-0.487388 -0.378599,-0.731055 -0.706694,-0.731055 -0.321795,0 -0.54896,0.243667 -0.700394,0.731055 l -1.255654,4.116417 -4.132884,-0.02637 c -0.485855,-0.0066 -0.782424,0.151494 -0.88338,0.467633 -0.107253,0.329319 0.0568,0.632279 0.448003,0.922059 l 3.36941,2.529116 -1.318731,4.0966616 c -0.157761,0.480785 -0.100951,0.81668 0.157734,1.020863 z"
       id="path1-5-1"
       style="stroke-width:0.275053;fill:#999999"
       inkscape:transform-center-x="0.32867707"
       inkscape:transform-center-y="2.5636812" />
    <path
       fill="#ffa500"
       d="m 51.596535,14.857435 c 0.258718,0.204157 0.586812,0.131711 0.978011,-0.164644 l 3.337885,-2.555475 3.344185,2.555475 c 0.391199,0.296355 0.712994,0.368801 0.978011,0.164644 0.25869,-0.204183 0.315495,-0.540078 0.157733,-1.020863 L 59.073601,9.73991 62.443013,7.210794 C 62.834291,6.921014 62.991947,6.618054 62.891016,6.288735 62.790087,5.972596 62.493517,5.814526 62.007635,5.821102 L 57.874753,5.847472 56.619125,1.731055 C 56.467691,1.243667 56.240526,0.99999996 55.912431,0.99999996 c -0.321795,0 -0.54896,0.24366704 -0.700394,0.73105504 l -1.255654,4.116417 -4.132884,-0.02637 c -0.485855,-0.0066 -0.782424,0.151494 -0.88338,0.467633 -0.107253,0.329319 0.0568,0.632279 0.448003,0.922059 l 3.36941,2.529116 -1.318731,4.096662 c -0.157761,0.480785 -0.100951,0.81668 0.157734,1.020863 z"
       id="path1-5-1-7"
       style="stroke-width:0.275053;fill:#999999"
       inkscape:transform-center-x="0.32867707"
       inkscape:transform-center-y="2.5636812" />
    <path
       fill="#ffa500"
       d="m 67.701712,14.857436 c 0.258718,0.204157 0.586812,0.131711 0.978011,-0.164644 l 3.337885,-2.555475 3.344185,2.555475 c 0.391199,0.296355 0.712994,0.368801 0.978011,0.164644 0.25869,-0.204183 0.315495,-0.540078 0.157733,-1.020863 L 75.178778,9.7399101 78.54819,7.2107941 c 0.391278,-0.28978 0.548934,-0.59274 0.448003,-0.922059 -0.100929,-0.316139 -0.397499,-0.474209 -0.883381,-0.467633 l -4.132882,0.02637 -1.255628,-4.116417 C 72.572868,1.243667 72.345703,1 72.017608,1 71.695813,1 71.468648,1.243667 71.317214,1.7310551 l -1.255654,4.116417 -4.132884,-0.02637 c -0.485855,-0.0066 -0.782424,0.151494 -0.88338,0.467633 -0.107253,0.329319 0.0568,0.632279 0.448003,0.922059 l 3.36941,2.529116 -1.318731,4.0966629 c -0.157761,0.480785 -0.100951,0.81668 0.157734,1.020863 z"
       id="path1-5-1-7-2"
       style="stroke-width:0.275053;fill:#999999"
       inkscape:transform-center-x="0.32867707"
       inkscape:transform-center-y="2.5636812" />
  </g>
</svg>
