<?xml version="1.0" encoding="UTF-8"?>
<svg width="408px" height="70px" viewBox="0 0 408 70" version="1.1" xmlns="http://www.w3.org/2000/svg" xmlns:xlink="http://www.w3.org/1999/xlink">
    <!-- Generator: Sketch 54.1 (76490) - https://sketchapp.com -->
    <title>Logo / Amplitude - Wide (no slogan)</title>
    <desc>Created with Sketch.</desc>
    <g id="Page-1" stroke="none" stroke-width="1" fill="none" fill-rule="evenodd">
        <g id="Desktop-HD" transform="translate(-516.000000, -45.000000)" fill="#FFFFFF">
            <g id="Navigation" transform="translate(139.000000, 45.000000)">
                <g id="Logo-/-Amplitude-/-Wide-(no-slogan)-/-White---old" transform="translate(377.000000, 0.000000)">
                    <g id="Amplitude">
                        <path d="M380.549577,58.5179385 C380.549577,62.267482 379.573148,68.3800009 371.253971,68.3800009 C366.607,68.3800009 362.0772,65.730867 362.0772,59.3738126 L362.0772,56.8469464 L367.622486,56.8469464 L367.622486,58.1511354 C367.622486,60.963293 368.286458,63.0002212 371.176688,63.0002212 C374.417602,63.0002212 374.417602,60.2704426 374.417602,58.2326472 L374.417602,38.5900342 L380.549577,38.5900342 L380.549577,58.5179385 Z M390.119081,58.0288677 C390.119081,61.8998117 393.009311,63.4086474 396.290113,63.4086474 C398.438257,63.4086474 401.718227,62.7565529 401.718227,59.7813717 C401.718227,56.6431668 397.539942,56.11334 393.43894,54.9721746 C389.29888,53.8310092 385.119763,52.160017 385.119763,46.6995926 C385.119763,40.7492302 390.509652,37.8963167 395.547195,37.8963167 C401.366713,37.8963167 406.717544,40.5454506 406.717544,47.2701753 L400.780855,47.2701753 C400.58557,43.7651673 398.203914,42.8685373 395.274626,42.8685373 C393.321768,42.8685373 391.056452,43.7244114 391.056452,46.1697658 C391.056452,48.4113407 392.384396,48.6966321 399.375629,50.5705366 C401.40577,51.1003634 407.654916,52.4453084 407.654916,59.0477653 C407.654916,64.3867892 403.632028,68.3800009 396.05577,68.3800009 C389.884738,68.3800009 384.105108,65.2010402 384.182392,58.0288677 L390.119081,58.0288677 Z" id="Combined-Shape"></path>
                        <polygon id="Fill-12" points="322.705584 66.3663123 322.705584 40.1099694 354.639386 40.1099694 354.639386 38.1155314 322.705584 38.1155314 322.705584 14.2004854 356.657894 14.2004854 356.657894 12.2060473 320.793445 12.2060473 320.793445 68.3607503 356.957055 68.3607503 356.957055 66.3663123"></polygon>
                        <path d="M292.72921,12.2063075 C299.628201,12.2063075 315.673216,14.9421562 315.673216,40.283659 C315.673216,49.6557833 313.058879,56.917272 307.903334,61.8652125 C303.475747,66.1142326 297.426873,68.3610104 290.411541,68.3610104 L273.825542,68.3610104 L273.825542,12.2063075 L292.72921,12.2063075 Z M292.356089,14.2007455 L275.737681,14.2007455 L275.737681,66.3665724 L290.784662,66.3665724 C301.893516,66.3665724 313.762739,59.5143771 313.762739,40.283659 C313.762739,18.7255183 302.122042,14.2007455 292.356089,14.2007455 Z" id="Combined-Shape"></path>
                        <path d="M267.244161,47.385159 C267.244161,60.8606228 261.225202,67.6928737 249.353486,67.6928737 C237.48177,67.6928737 231.461981,60.8606228 231.461981,47.385159 L231.461981,12.2067411 L229.550673,12.2067411 L229.550673,47.385159 C229.550673,61.9749066 236.398142,69.6873117 249.353486,69.6873117 C262.308,69.6873117 269.154638,61.9749066 269.154638,47.385159 L269.154638,12.2067411 L267.244161,12.2067411 L267.244161,47.385159 Z" id="Fill-10"></path>
                        <polygon id="Fill-9" points="185.349763 14.2007455 204.570043 14.2007455 204.570043 68.3610104 206.482182 68.3610104 206.482182 14.2007455 225.702462 14.2007455 225.702462 12.2063075 185.349763 12.2063075"></polygon>
                        <polygon id="Fill-7" points="179.590992 68.3604034 181.503131 68.3604034 181.503131 12.2065676 179.590992 12.2065676"></polygon>
                        <polygon id="Fill-5" points="145.52982 12.2064809 143.617681 12.2064809 143.617681 68.3603167 176.714889 68.3603167 176.714889 66.3667458 145.52982 66.3667458"></polygon>
                        <path d="M122.510857,12.2063075 C133.110307,12.2063075 138.947275,17.6875434 138.947275,27.6406563 C138.947275,37.1133697 132.362404,42.9978289 121.762954,42.9978289 L102.600844,42.9978289 L102.600844,68.3610104 L100.689536,68.3610104 L100.689536,12.2063075 L122.510857,12.2063075 Z M102.600844,14.2007455 L102.600844,41.0033909 L122.510857,41.0033909 C131.334452,41.0033909 137.035967,35.758019 137.035967,27.6406563 C137.035967,18.8486532 132.013382,14.2007455 122.510857,14.2007455 L102.600844,14.2007455 Z" id="Combined-Shape"></path>
                        <polygon id="Fill-2" points="70.6915564 49.2235973 51.5286157 12.3230255 51.4704455 12.2068278 48.7954452 12.2068278 69.6744082 51.6542102 69.7334094 51.7686736 71.6172943 51.7686736 94.1059111 14.8733047 94.1059111 68.3606636 96.0172191 68.3606636 96.0172191 12.2068278 93.2275404 12.2068278"></polygon>
                        <path d="M34.1376238,0 L36.5151248,0 L72.2092181,68.21585 L69.8325481,68.21585 L55.2019005,40.6414438 L2.37750101,68.1057224 L0,68.1057224 L34.1376238,0 Z M28.0297481,30.7559684 L28.0297481,32.364526 L34.5747316,32.364526 L34.5747316,39.1941755 L36.1154121,39.1941755 L36.1154121,32.364526 L42.6603957,32.364526 L42.6603957,30.7559684 L36.1154121,30.7559684 L36.1154121,23.9254518 L34.5747316,23.9254518 L34.5747316,30.7559684 L28.0297481,30.7559684 Z" id="Combined-Shape"></path>
                    </g>
                </g>
            </g>
        </g>
    </g>
</svg>