<?xml version="1.0" encoding="UTF-8" standalone="no"?>
<svg
   xmlns:dc="http://purl.org/dc/elements/1.1/"
   xmlns:cc="http://creativecommons.org/ns#"
   xmlns:rdf="http://www.w3.org/1999/02/22-rdf-syntax-ns#"
   xmlns:svg="http://www.w3.org/2000/svg"
   xmlns="http://www.w3.org/2000/svg"
   xmlns:sodipodi="http://sodipodi.sourceforge.net/DTD/sodipodi-0.dtd"
   xmlns:inkscape="http://www.inkscape.org/namespaces/inkscape"
   width="40"
   height="40"
   version="1.1"
   id="svg14"
   sodipodi:docname="hyvor-logo.svg"
   inkscape:export-filename="../hyvor-logo.24x24.png"
   inkscape:export-xdpi="57.599998"
   inkscape:export-ydpi="57.599998"
   inkscape:version="1.0.1 (3bc2e813f5, 2020-09-07)">
  <metadata
     id="metadata20">
    <rdf:RDF>
      <cc:Work
         rdf:about="">
        <dc:format>image/svg+xml</dc:format>
        <dc:type
           rdf:resource="http://purl.org/dc/dcmitype/StillImage" />
      </cc:Work>
    </rdf:RDF>
  </metadata>
  <defs
     id="defs18" />
  <sodipodi:namedview
     pagecolor="#ffffff"
     bordercolor="#666666"
     borderopacity="1"
     objecttolerance="10"
     gridtolerance="10"
     guidetolerance="10"
     inkscape:pageopacity="0"
     inkscape:pageshadow="2"
     inkscape:window-width="1964"
     inkscape:window-height="1046"
     id="namedview16"
     showgrid="false"
     inkscape:zoom="20.35"
     inkscape:cx="20"
     inkscape:cy="20"
     inkscape:window-x="0"
     inkscape:window-y="0"
     inkscape:window-maximized="0"
     inkscape:current-layer="svg14" />
  <path
     d="M623.625 1397.247h35.192v37.538h-35.192z"
     fill="#fff"
     fill-rule="evenodd"
     id="path2" />
  <text
     xml:space="preserve"
     font-weight="bold"
     font-size="2.822"
     font-family="Segoe Script"
     id="text8"><tspan
       x="-20.215"
       y="3.539"
       visibility="hidden"
       id="tspan6"><tspan
         dx="0 2.3647118"
         x="-20.215"
         y="-161.169"
         id="tspan4">HH</tspan></tspan></text>
  <circle
     cx="20"
     cy="20"
     r="20"
     fill="#fff2d0"
     id="circle10" />
  <path
     d="M27.694 32.608c-.222-.088-.431-.309-.983-1.036-.528-.696-.893-1.068-1.139-1.161-.254-.097-.515-.061-1.102.152-1.405.509-2.82.744-4.483.744-2.166 0-3.903-.391-5.765-1.296-3.71-1.805-6.158-5.055-6.786-9.012-.148-.929-.133-2.606.03-3.534.434-2.464 1.504-4.547 3.24-6.305 2.071-2.097 4.572-3.323 7.659-3.754.75-.105 2.621-.088 3.447.031 1.999.287 3.742.935 5.359 1.992.805.526 1.234.875 1.991 1.622 2.444 2.411 3.74 5.81 3.465 9.088-.116 1.384-.344 2.338-.879 3.674-.185.464-.643 1.793-1.016 2.955-1.247 3.877-1.917 5.437-2.486 5.789-.209.129-.333.141-.554.053z"
     fill="#ffd969"
     id="path12" />
</svg>
